<svg xmlns="http://www.w3.org/2000/svg" xmlns:svg="http://www.w3.org/2000/svg" id="Layer_1" width="256" height="256" data-name="Layer 1" version="1.1" viewBox="0 0 256 256"><defs id="defs4"><style id="style2">.cls-1{fill:#fff}.cls-2{fill:#e95420}.cls-3{fill:#fff;font-size:20px;font-family:Ubuntu-Light,Ubuntu;font-weight:300}</style></defs><g id="g118" transform="scale(1.6)"><rect id="rect32" width="160" height="160" x="0" y="0" class="cls-2"/><g id="g1049"><circle id="circle6" cx="80" cy="65.88" r="50" class="cls-1"/><path id="path8" d="m 54.05,65.88 a 6.43,6.43 0 1 1 -6.43,-6.42 6.43,6.43 0 0 1 6.43,6.42 z M 90.63,97.14 A 6.43,6.43 0 1 0 93,88.36 6.42,6.42 0 0 0 90.63,97.14 Z M 101.76,41.06 A 6.43,6.43 0 1 0 93,43.41 6.43,6.43 0 0 0 101.76,41.06 Z M 80,47.55 a 18.33,18.33 0 0 1 18.26,16.71 l 9.31,-0.15 a 27.59,27.59 0 0 0 -8.12,-17.83 9,9 0 0 1 -12.2,-7.05 27.73,27.73 0 0 0 -19.5,1.9 l 4.53,8.12 A 18.25,18.25 0 0 1 80,47.55 Z M 61.67,65.88 a 18.32,18.32 0 0 1 7.79,-15 l -4.77,-8 a 27.63,27.63 0 0 0 -11.4,15.94 9,9 0 0 1 0,14.09 27.63,27.63 0 0 0 11.4,15.94 l 4.77,-8 A 18.32,18.32 0 0 1 61.67,65.88 Z M 80,84.22 a 18.25,18.25 0 0 1 -7.72,-1.7 l -4.53,8.12 a 27.73,27.73 0 0 0 19.5,1.9 9,9 0 0 1 12.2,-7.05 27.56,27.56 0 0 0 8.11,-17.84 l -9.3,-0.14 A 18.33,18.33 0 0 1 80,84.22 Z" class="cls-2"/></g><text id="text10" x="54.79" y="146.52" class="cls-3">{{.ShortVersion}}</text></g></svg>